# xmcd
#
# Track frame offsets: 
#        150
#        26504
#        53887
#        80664
#        107452
#        133352
#        166295
#        193443
#
# Disc length: 2959 seconds
#
# Revision: 8
# Processed by: cddbd v1.5.2PL0 Copyright (c) Steve Scherf et al.
# Submitted via: ExactAudioCopy v1.0b3
#
DISCID=6e0b8d08
DTITLE=Wayne Gorbea's Salse Picante - ¡Prakatun! Cogele El Gusto Otra 
DTITLE=Vez
DYEAR=2006
DGENRE=Salsa
TTITLE0=Prakatun
TTITLE1=La Muchachita
TTITLE2=Pa' Puerto Rico
TTITLE3=A Primera Vista
TTITLE4=Ven Baila Conmigo
TTITLE5=Cuando Camina Esa Mulata
TTITLE6=DJs Sabroso
TTITLE7=Rhumbembe
EXTD=YEAR: 2006
EXTT0=
EXTT1=
EXTT2=
EXTT3=
EXTT4=
EXTT5=
EXTT6=
EXTT7=
PLAYORDER=
